<?xml version="1.0" encoding="utf-8"?>
<!-- Generator: Adobe Illustrator 15.1.0, SVG Export Plug-In . SVG Version: 6.00 Build 0)  -->
<!DOCTYPE svg PUBLIC "-//W3C//DTD SVG 1.1//EN" "http://www.w3.org/Graphics/SVG/1.1/DTD/svg11.dtd">
<svg version="1.1" id="Capa_1" xmlns="http://www.w3.org/2000/svg" xmlns:xlink="http://www.w3.org/1999/xlink" x="0px" y="0px"
	 width="33.984px" height="100px" viewBox="4.924 0 33.984 100" enable-background="new 4.924 0 33.984 100" xml:space="preserve">
<g id="Layer_3" display="none">
	<circle display="inline" fill="none" stroke="#000000" stroke-width="0.25" stroke-miterlimit="10" cx="50" cy="50" r="15.134"/>
	<polyline display="inline" opacity="0.26" enable-background="new    " points="94,6 6,6 6,94 94,94 	"/>
	<circle display="inline" fill="none" stroke="#000000" stroke-width="0.25" stroke-miterlimit="10" cx="50" cy="50" r="24"/>
	<circle display="inline" fill="none" stroke="#000000" stroke-width="0.25" stroke-miterlimit="10" cx="50" cy="50" r="30"/>
	<circle display="inline" fill="none" stroke="#000000" stroke-width="0.25" stroke-miterlimit="10" cx="50" cy="50" r="9.134"/>
	<path display="inline" fill="none" stroke="#000000" stroke-width="0.25" stroke-miterlimit="10" d="M0,50C0,22.386,22.389,0,50,0
		c27.611,0,50,22.386,50,50"/>
	<path display="inline" fill="none" stroke="#000000" stroke-width="0.25" stroke-miterlimit="10" d="M100,50
		c0,27.614-22.389,50-50,50c-27.61,0-50-22.386-50-50"/>
</g>
<g id="Your_Icon">
	<g>
		<path fill="#FFFFFF" d="M22.182,38.746c-7.077-4.6-14.288-14.846-13.599-23.38c0.373-4.595,2.465-8.714,5.894-11.598
			c3.199-2.693,7.213-3.972,11.305-3.597c4.412,0.402,8.494,2.745,11.2,6.428l-4.835,3.553c-1.714-2.333-4.168-3.755-6.91-4.005
			c-2.481-0.227-4.932,0.56-6.896,2.212c-2.191,1.845-3.532,4.505-3.774,7.49c-0.489,6.041,5.345,14.264,10.889,17.866
			L22.182,38.746z"/>
		<path fill="#FFFFFF" d="M20.303,68.205l-3.807-2.967c-1.411-0.65-2.714-1.512-3.879-2.564l-1.596-1.438l0.103-0.239
			c-3.108-2.715-7.143-7.261-6.004-13.976c1.364-8.043,7.991-13.881,15.757-13.881c0.735,0,1.476,0.054,2.207,0.162l0.725-1.674
			l3.075,2.492c0.247,0.2,0.495,0.398,0.743,0.596c1.025,0.506,1.994,1.126,2.89,1.848l1.714,1.385l-0.147,0.37
			c4.108,3.565,7.767,8.01,6.529,14.707c-1.459,7.896-8.068,13.627-15.713,13.627l0,0c-0.646,0-1.292-0.043-1.937-0.125
			L20.303,68.205z M19.582,60.043l0.45,0.146c0.395,0.127,0.75,0.222,1.085,0.289c0.587,0.113,1.188,0.174,1.782,0.174
			c4.751,0,8.879-3.666,9.812-8.717c0.734-3.98-1.576-6.713-6.1-10.365l-1.716-1.385l0.042-0.105
			c-0.058-0.028-0.113-0.055-0.172-0.082l-0.32-0.149l-0.572-0.194c-0.521-0.177-0.951-0.293-1.357-0.366
			c-0.542-0.098-1.093-0.147-1.637-0.147c-4.83,0-8.969,3.736-9.841,8.884c-0.658,3.877,1.559,6.513,5.607,9.75l1.786,1.431
			l-0.104,0.235c0.293,0.166,0.595,0.314,0.904,0.449L19.582,60.043z"/>
		<path fill="#FFFFFF" d="M19.394,99.895c-0.549,0-1.101-0.03-1.652-0.092c-4.405-0.478-8.452-2.885-11.1-6.609l4.89-3.479
			c1.679,2.362,4.114,3.826,6.856,4.123c2.479,0.27,4.938-0.477,6.927-2.097c2.217-1.806,3.596-4.44,3.881-7.421
			c0.568-5.943-5.187-14.545-10.712-18.264l3.35-4.979c7.056,4.746,14.159,15.2,13.334,23.812
			c-0.438,4.588-2.592,8.674-6.062,11.502C26.302,98.678,22.905,99.895,19.394,99.895z"/>
	</g>
</g>
<g id="Layer_4">
</g>
</svg>
