<?xml version="1.0" encoding="utf-8"?>
<!-- Generator: Adobe Illustrator 15.1.0, SVG Export Plug-In . SVG Version: 6.00 Build 0)  -->
<!DOCTYPE svg PUBLIC "-//W3C//DTD SVG 1.1//EN" "http://www.w3.org/Graphics/SVG/1.1/DTD/svg11.dtd">
<svg version="1.1" id="Capa_1" xmlns="http://www.w3.org/2000/svg" xmlns:xlink="http://www.w3.org/1999/xlink" x="0px" y="0px"
	 width="100px" height="100px" viewBox="0 0 100 100" enable-background="new 0 0 100 100" xml:space="preserve">
<g id="Layer_3" display="none">
	<circle display="inline" fill="none" stroke="#000000" stroke-width="0.25" stroke-miterlimit="10" cx="50" cy="50" r="15.134"/>
	<rect x="6" y="6" display="inline" opacity="0.26" enable-background="new    " width="88" height="88"/>
	<circle display="inline" fill="none" stroke="#000000" stroke-width="0.25" stroke-miterlimit="10" cx="50" cy="50" r="24"/>
	<circle display="inline" fill="none" stroke="#000000" stroke-width="0.25" stroke-miterlimit="10" cx="50" cy="50" r="30"/>
	<circle display="inline" fill="none" stroke="#000000" stroke-width="0.25" stroke-miterlimit="10" cx="50" cy="50" r="9.134"/>
	<g display="inline">
		<path d="M50,0.25c27.434,0,49.75,22.318,49.75,49.75c0,27.432-22.316,49.75-49.75,49.75C22.567,99.75,0.25,77.432,0.25,50
			C0.25,22.568,22.567,0.25,50,0.25 M50,0C22.389,0,0,22.386,0,50s22.389,50,50,50c27.611,0,50-22.386,50-50S77.611,0,50,0L50,0z"/>
	</g>
</g>
<g id="Your_Icon">
</g>
<g id="Layer_4">
	<path fill="#FFFFFF" d="M39,76C20.804,76,6,61.195,6,43c0-18.196,14.804-33,33-33c18.195,0,33,14.804,33,33
		C72,61.195,57.195,76,39,76z M39,16c-14.888,0-27,12.112-27,27c0,14.889,12.112,27,27,27c14.889,0,27-12.111,27-27
		C66,28.112,53.889,16,39,16z"/>
	
		<rect x="55.58" y="76.5" transform="matrix(-0.7071 -0.7071 0.7071 -0.7071 76.0877 190.5136)" fill="#FFFFFF" width="43.841" height="5.998"/>
</g>
</svg>
