<?xml version="1.0" encoding="utf-8"?>
<!-- Generator: Adobe Illustrator 15.1.0, SVG Export Plug-In . SVG Version: 6.00 Build 0)  -->
<!DOCTYPE svg PUBLIC "-//W3C//DTD SVG 1.1//EN" "http://www.w3.org/Graphics/SVG/1.1/DTD/svg11.dtd">
<svg version="1.1" id="Capa_1" xmlns="http://www.w3.org/2000/svg" xmlns:xlink="http://www.w3.org/1999/xlink" x="0px" y="0px"
	 width="66px" height="72px" viewBox="17 28 66 72" enable-background="new 17 28 66 72" xml:space="preserve">
<g id="Layer_3" display="none">
	<circle display="inline" fill="none" stroke="#000000" stroke-width="0.25" stroke-miterlimit="10" cx="50" cy="50" r="15.134"/>
	<polyline display="inline" opacity="0.26" enable-background="new    " points="94,6 6,6 6,94 94,94 	"/>
	<circle display="inline" fill="none" stroke="#000000" stroke-width="0.25" stroke-miterlimit="10" cx="50" cy="50" r="24"/>
	<circle display="inline" fill="none" stroke="#000000" stroke-width="0.25" stroke-miterlimit="10" cx="50" cy="50" r="30"/>
	<circle display="inline" fill="none" stroke="#000000" stroke-width="0.25" stroke-miterlimit="10" cx="50" cy="50" r="9.134"/>
	<path display="inline" fill="none" stroke="#000000" stroke-width="0.25" stroke-miterlimit="10" d="M0,50C0,22.386,22.389,0,50,0
		c27.611,0,50,22.386,50,50"/>
	<path display="inline" fill="none" stroke="#000000" stroke-width="0.25" stroke-miterlimit="10" d="M100,50
		c0,27.614-22.389,50-50,50C22.389,100,0,77.614,0,50"/>
</g>
<g id="Your_Icon">
</g>
<g id="Layer_4">
	<path fill="#FFFFFF" d="M49.999,59C41.453,59,34.5,52.047,34.5,43.5S41.453,28,49.999,28C58.546,28,65.5,34.953,65.5,43.5
		S58.546,59,49.999,59z M49.999,34c-5.237,0-9.499,4.262-9.499,9.5s4.262,9.5,9.499,9.5c5.239,0,9.501-4.262,9.501-9.5
		S55.238,34,49.999,34z"/>
	<path fill="#FFFFFF" d="M83,100h-6c0-16.159-12.111-29.307-27-29.307c-14.888,0-27,13.146-27,29.307h-6
		c0-19.468,14.804-35.307,33-35.307C68.195,64.693,83,80.532,83,100z"/>
</g>
</svg>
