<?xml version="1.0" encoding="utf-8"?>
<!-- Generator: Adobe Illustrator 15.1.0, SVG Export Plug-In . SVG Version: 6.00 Build 0)  -->
<!DOCTYPE svg PUBLIC "-//W3C//DTD SVG 1.1//EN" "http://www.w3.org/Graphics/SVG/1.1/DTD/svg11.dtd">
<svg version="1.1" id="Capa_1" xmlns="http://www.w3.org/2000/svg" xmlns:xlink="http://www.w3.org/1999/xlink" x="0px" y="0px"
	 width="97.625px" height="99px" viewBox="1 0 97.625 99" enable-background="new 1 0 97.625 99" xml:space="preserve">
<g id="Layer_3" display="none">
	<circle display="inline" fill="none" stroke="#000000" stroke-width="0.25" stroke-miterlimit="10" cx="50" cy="50" r="15.134"/>
	<polyline display="inline" opacity="0.26" enable-background="new    " points="94,6 6,6 6,94 94,94 	"/>
	<circle display="inline" fill="none" stroke="#000000" stroke-width="0.25" stroke-miterlimit="10" cx="50" cy="50" r="24"/>
	<circle display="inline" fill="none" stroke="#000000" stroke-width="0.25" stroke-miterlimit="10" cx="50" cy="50" r="30"/>
	<circle display="inline" fill="none" stroke="#000000" stroke-width="0.25" stroke-miterlimit="10" cx="50" cy="50" r="9.134"/>
	<path display="inline" fill="none" stroke="#000000" stroke-width="0.25" stroke-miterlimit="10" d="M0,50C0,22.386,22.389,0,50,0
		c27.611,0,50,22.386,50,50"/>
	<path display="inline" fill="none" stroke="#000000" stroke-width="0.25" stroke-miterlimit="10" d="M100,50
		c0,27.614-22.389,50-50,50C22.389,100,0,77.614,0,50"/>
</g>
<g id="Your_Icon">
</g>
<g id="Layer_4">
	<path fill="#FFFFFF" d="M15.622,29.25c-3.905,0-7.576-1.521-10.338-4.284C2.522,22.203,1,18.531,1,14.627
		C1,6.562,7.561,0.001,15.625,0H50v6H15.625C10.869,6.001,7,9.871,7,14.627c0,2.302,0.897,4.468,2.526,6.097
		c1.629,1.629,3.793,2.526,6.095,2.526c0.001,0,0.001,0,0.002,0l0.002,6C15.625,29.25,15.623,29.25,15.622,29.25z"/>
	<path fill="#FFFFFF" d="M84.004,52.5c-0.002,0-0.003,0-0.005,0l0.002-6c0.001,0,0.002,0,0.002,0c2.302,0,4.466-0.897,6.095-2.526
		c1.629-1.629,2.526-3.795,2.526-6.097c0-4.756-3.869-8.626-8.625-8.627h-68.84v-6H84c8.064,0.001,14.625,6.562,14.625,14.627
		c0,3.904-1.521,7.576-4.283,10.339S87.908,52.5,84.004,52.5z"/>
	<path fill="#FFFFFF" d="M15.621,75.75c-3.904,0-7.576-1.521-10.338-4.284C2.521,68.703,1,65.031,1,61.127
		C1,53.062,7.561,46.501,15.625,46.5h68.841v6H15.625C10.869,52.501,7,56.371,7,61.127c0,2.303,0.897,4.468,2.526,6.098
		c1.629,1.629,3.793,2.525,6.095,2.525c0.001,0,0.001,0,0.002,0l0.002,6C15.625,75.75,15.623,75.75,15.621,75.75z"/>
	<path fill="#FFFFFF" d="M84.004,99c-0.002,0-0.003,0-0.005,0H50v-6h34c0.001,0,0.002,0,0.003,0c2.302,0,4.468-0.896,6.097-2.525
		c1.629-1.63,2.525-3.795,2.525-6.098c0-4.756-3.869-8.626-8.625-8.627H15.16v-6H84c8.064,0.001,14.625,6.562,14.625,14.627
		c0,3.904-1.521,7.576-4.283,10.339S87.908,99,84.004,99z"/>
</g>
</svg>
